<?xml version="1.0" standalone="no"?>
<!DOCTYPE svg PUBLIC "-//W3C//DTD SVG 20010904//EN"
 "http://www.w3.org/TR/2001/REC-SVG-20010904/DTD/svg10.dtd">
<svg version="1.0" xmlns="http://www.w3.org/2000/svg"
 width="850.000000pt" height="530.000000pt" viewBox="0 0 850.000000 530.000000"
 preserveAspectRatio="xMidYMid meet">

<g transform="translate(0.000000,530.000000) scale(0.100000,-0.100000)"
fill="#000000" stroke="none">
<path d="M1984 4775 c9 -14 171 -231 359 -483 189 -251 403 -538 477 -637 74
-99 309 -413 523 -698 213 -285 387 -524 385 -531 -3 -12 -188 -215 -618 -676
-80 -86 -302 -327 -495 -535 -192 -209 -411 -445 -485 -525 -74 -80 -144 -155
-154 -168 l-19 -22 200 0 199 0 470 507 c258 279 581 629 719 778 318 344 373
401 378 395 2 -3 286 -382 631 -842 l626 -838 680 0 c374 0 680 2 680 5 0 5
-245 334 -1166 1565 -714 955 -694 927 -694 935 0 5 367 404 579 630 53 56
354 381 864 934 l209 226 -199 3 -198 3 -45 -48 c-25 -27 -178 -192 -340 -368
-162 -176 -331 -358 -375 -405 -44 -47 -128 -137 -186 -200 -439 -477 -492
-531 -504 -518 -13 14 -662 880 -970 1295 l-180 242 -684 1 -683 0 16 -25z
m1607 -817 c1617 -2159 2359 -3154 2359 -3160 0 -2 -141 -1 -314 2 l-314 5
-299 400 c-568 760 -952 1273 -1604 2145 -554 740 -771 1030 -847 1132 -12 17
3 18 300 18 l313 0 406 -542z"/>
</g>
</svg>
